<svg id="AI_standard" data-name="AI standard" xmlns="http://www.w3.org/2000/svg" width="882" height="280" viewBox="0 0 882 280">
  <defs>
    <style>
      .cls-1 {
        fill: #ffb700;
      }

      .cls-1, .cls-2 {
        fill-rule: evenodd;
      }

      .cls-2 {
        fill: #372e2c;
      }
    </style>
  </defs>
  <g id="shapped_text" data-name="shapped text">
    <path id="akcja_Integracja_" data-name="akcja Integracja!" class="cls-1" d="M60.873,238.629V216.487H44.4V133.042H60.873V110.9H0.12v22.142H16.589v83.445H0.12v22.142H60.873Zm43.533,0V176.411a12.468,12.468,0,0,1,1.464-6.13A13.855,13.855,0,0,1,109.8,165.8a16.291,16.291,0,0,1,5.581-2.653,24.918,24.918,0,0,1,6.405-.824q7.5,0,10.43,4.483t2.928,13.816v58.009h27.083v-60.2q0-18.3-7.594-28.18t-22.417-9.882q-11.347,0-17.75,5.49a29.436,29.436,0,0,0-8.966,12.992h-1.1V142.558H77.323v96.071h27.083Zm126.812,0V217.585H213.651V163.6h19.031V142.558H213.651V116.573H189.313V132.31q0,4.941-2.013,7.595t-7.5,2.653h-6.771V163.6h13.542v47.029q0,13.725,7.228,20.861t21.318,7.137h16.1ZM310.16,236.6A42.727,42.727,0,0,0,326.9,224.861L313.362,207.98a53.984,53.984,0,0,1-9.881,8.078q-5.31,3.358-13.725,3.357-10.98,0-16.1-5.536t-5.124-14.971v-1.452H330.2V189.4a68.964,68.964,0,0,0-2.47-18.574,43.544,43.544,0,0,0-7.869-15.646,38.555,38.555,0,0,0-13.907-10.8q-8.51-4.023-20.4-4.026a48.824,48.824,0,0,0-19.214,3.568,38.534,38.534,0,0,0-14.182,10.156,43.752,43.752,0,0,0-8.692,15.829,73.7,73.7,0,0,0,.092,41.448,42.369,42.369,0,0,0,8.966,15.829,40.373,40.373,0,0,0,14.548,10.064,50.705,50.705,0,0,0,19.58,3.569A61.773,61.773,0,0,0,310.16,236.6Zm-11.9-70.9q3.933,5.4,3.935,14.182v1.647H268.529v-1.464q0-8.964,4.666-14.365t12.9-5.4Q294.331,160.308,298.265,165.706Zm127.472,59.2q-7.961-7.317-25.528-7.319H372.4q-6.224,0-8.876-1.922a6.277,6.277,0,0,1-2.653-5.4,8.678,8.678,0,0,1,4.209-7.686,67.042,67.042,0,0,0,17.018,2.013q20.862,0,31.017-8.692t10.156-23.148a32.456,32.456,0,0,0-4.025-16.378A27.444,27.444,0,0,0,406.8,145.3v-1.1h21.227V124.076H412.836q-6.957,0-10.705,3.385t-3.752,11.071v3.66a63.187,63.187,0,0,0-16.286-1.83q-20.861,0-31.017,8.869t-10.156,23.5a31.253,31.253,0,0,0,4.209,16.366q4.207,7.042,12.992,11.063v0.732a45.527,45.527,0,0,0-6.588,2.018,20,20,0,0,0-5.764,3.388,17.517,17.517,0,0,0-4.026,4.947,13.712,13.712,0,0,0-1.555,6.688,17.751,17.751,0,0,0,3.477,10.9q3.474,4.675,10.43,5.956V236.8q-8.418,1.1-13.175,5.673T336.162,255.1a17.96,17.96,0,0,0,2.471,9.424,19.307,19.307,0,0,0,7.868,6.954,49.318,49.318,0,0,0,14.091,4.392,144.734,144.734,0,0,0,45.748-.549q9.971-2.106,16.011-6.222a24.136,24.136,0,0,0,8.693-9.973,32.551,32.551,0,0,0,2.653-13.542Q433.7,232.228,425.737,224.9Zm-22.051,32.115q-4.576,2.471-15.554,2.471h-10.98q-10.978,0-15.554-2.471a8.235,8.235,0,0,1-4.575-7.777,13.179,13.179,0,0,1,.824-4.483,11.054,11.054,0,0,1,2.653-4.117h32.939q8.233,0,11.528,2.2a7.211,7.211,0,0,1,3.294,6.4A8.24,8.24,0,0,1,403.686,257.019ZM370.107,183.3q-3.937-3.363-3.934-9.728v-2.184q0-6.36,3.934-9.724t11.986-3.366q8.05,0,11.986,3.366t3.934,9.724v2.184q0,6.366-3.934,9.728t-11.986,3.362Q374.038,186.659,370.107,183.3Zm100.2,55.332V182.45q0-8.415,5.764-11.528t17.659-3.111h6.771V142.558h-4.758a25.783,25.783,0,0,0-9.882,1.738,22.76,22.76,0,0,0-7.228,4.667,23.733,23.733,0,0,0-4.849,6.679,29.764,29.764,0,0,0-2.562,7.777h-0.915V142.558H443.228v96.071h27.083Zm129.411,0V217.585h-8.967V175.5q0-17.2-10.248-26.167t-30.742-8.967q-15.192,0-24.064,4.878a42.076,42.076,0,0,0-14.731,13.524l16.1,14.354a34.363,34.363,0,0,1,7.868-7.869q4.757-3.474,12.81-3.477,8.6,0,12.26,4.117t3.66,11.071V183H548.484q-19.035,0-30.1,7.388t-11.071,22.529q0,12.587,7.685,20.249t22.142,7.66q10.98,0,18.483-4.85a22.213,22.213,0,0,0,9.7-14.181h1.1a21.014,21.014,0,0,0,6.13,12.26,17.027,17.027,0,0,0,12.169,4.575h15.006Zm-61.852-19.1q-3.294-2.453-3.294-7.717v-2.725q0-10.713,15.921-10.713h13.175v11.256q0,6.541-4.849,9.444a22.188,22.188,0,0,1-11.62,2.905Q541.164,221.976,537.87,219.526ZM676.228,234.42q9.972-6.4,14.731-20.129l-21.044-9.15A23.042,23.042,0,0,1,663.6,215.48q-4.3,3.938-11.62,3.935-8.234,0-12.443-5.307t-4.209-14.457V181.718q0-9.148,4.209-14.548t12.443-5.4q7.137,0,11.163,3.843a18.43,18.43,0,0,1,5.307,9.333l21.959-9.516a36.089,36.089,0,0,0-14-18.482q-9.792-6.588-24.43-6.588a49.992,49.992,0,0,0-19.214,3.477,36.832,36.832,0,0,0-14.09,10.064,44.5,44.5,0,0,0-8.6,15.829,68.59,68.59,0,0,0-2.928,20.77,69.481,69.481,0,0,0,2.928,20.861,43.45,43.45,0,0,0,8.6,15.829,38.136,38.136,0,0,0,14.09,10.064,48.824,48.824,0,0,0,19.214,3.569Q666.255,240.825,676.228,234.42Zm26.552,19.763H688.506v21.044H702.78q14.273,0,20.678-6.771t6.4-19.58V142.558H702.78V254.183Zm25.527-125.624a13.009,13.009,0,0,0,3.751-9.607v-4.026a13.018,13.018,0,0,0-3.751-9.607q-3.753-3.749-11.986-3.751t-11.986,3.751a13.006,13.006,0,0,0-3.751,9.607v4.026a13,13,0,0,0,3.751,9.607q3.748,3.753,11.986,3.751T728.307,128.559Zm107.415,110.07V217.585h-8.966V175.5q0-17.2-10.248-26.167t-30.742-8.967q-15.192,0-24.064,4.878a42.076,42.076,0,0,0-14.731,13.524l16.1,14.354a34.363,34.363,0,0,1,7.868-7.869q4.757-3.474,12.81-3.477,8.6,0,12.26,4.117t3.66,11.071V183H784.485q-19.035,0-30.1,7.388t-11.071,22.529q0,12.587,7.686,20.249t22.142,7.66q10.98,0,18.482-4.85a22.21,22.21,0,0,0,9.7-14.181h1.1a21.014,21.014,0,0,0,6.13,12.26,17.027,17.027,0,0,0,12.169,4.575h15Zm-61.851-19.1q-3.294-2.453-3.294-7.717v-2.725q0-10.713,15.921-10.713h13.175v11.256q0,6.541-4.849,9.444a22.188,22.188,0,0,1-11.62,2.905Q777.165,221.976,773.871,219.526Zm97.843-21.155,8.418-51.97V110.9H851.585v35.5l8.6,51.97h11.528Zm6.5,38.428a13.957,13.957,0,0,0,3.752-9.882v-4.392a13.967,13.967,0,0,0-3.752-9.881q-3.752-4.023-12.535-4.026t-12.535,4.026a13.957,13.957,0,0,0-3.751,9.881v4.392a13.948,13.948,0,0,0,3.751,9.882q3.749,4.023,12.535,4.026T878.21,236.8Z"/>
    <path id="akcja" class="cls-2" d="M147,104.435V91.869h-6.344V61.927q0-10.951-6.71-16.8T114.307,39.29q-9.639,0-15.493,3.376a26.93,26.93,0,0,0-9.394,8.9l9.272,8.345a23.462,23.462,0,0,1,5.672-5.673,14.977,14.977,0,0,1,8.845-2.379q6.222,0,9.028,2.928t2.805,8.3v4.636H114.185q-13.056,0-20.129,4.8T86.98,87.171q0,8.515,5.246,13.621t15,5.107a22.04,22.04,0,0,0,12.078-3.111,14.941,14.941,0,0,0,6.465-9.333h0.732a13.734,13.734,0,0,0,3.721,7.991,10.956,10.956,0,0,0,8.113,2.989H147ZM105.34,92.676a6.727,6.727,0,0,1-2.5-5.755V84.862q0-7.754,12.2-7.754h10v8.359a7.512,7.512,0,0,1-3.659,6.786,16.4,16.4,0,0,1-8.906,2.3Q107.839,94.553,105.34,92.676Zm51.932,11.76h15.616v-19.4l8.417-9.15,16.348,28.547H216.2L191.919,65.4l21.959-24.643H196.189L181.915,57.1,173.5,68.568h-0.61V14.159H157.272v90.276Zm104.562-2.745a25.013,25.013,0,0,0,9.637-12.627L259.516,83.33a19.65,19.65,0,0,1-4.758,7.137q-3.051,2.868-8.662,2.867-6.588,0-9.82-4.087t-3.233-10.8V66.86q0-6.708,3.233-10.857t9.82-4.148a11.875,11.875,0,0,1,8.113,2.623,13.284,13.284,0,0,1,4.087,6.649l12.809-5.734a23.976,23.976,0,0,0-9.089-11.833q-6.284-4.269-15.92-4.27a32.076,32.076,0,0,0-12.565,2.318,24.534,24.534,0,0,0-9.211,6.649,29.624,29.624,0,0,0-5.673,10.43A45.133,45.133,0,0,0,216.7,72.472a45.716,45.716,0,0,0,1.952,13.846,30.182,30.182,0,0,0,5.673,10.553,24.211,24.211,0,0,0,9.211,6.71A32.076,32.076,0,0,0,246.1,105.9Q255.366,105.9,261.834,101.69Zm18.956,14.578h-9.76v12.566h8.54q8.784,0,12.809-4.331T296.4,112.12V40.753H280.79v75.515Zm14.761-86.982a7.6,7.6,0,0,0,2.2-5.612v-2.44a7.6,7.6,0,0,0-2.2-5.612q-2.2-2.2-6.954-2.2-4.881,0-7.014,2.2a7.716,7.716,0,0,0-2.135,5.612v2.44a7.713,7.713,0,0,0,2.135,5.612q2.133,2.2,7.014,2.2Q293.355,31.482,295.551,29.286Zm71.487,75.149V91.869h-6.344V61.927q0-10.951-6.709-16.8T334.344,39.29q-9.639,0-15.494,3.376a26.927,26.927,0,0,0-9.393,8.9l9.271,8.345a23.44,23.44,0,0,1,5.673-5.673,14.977,14.977,0,0,1,8.845-2.379q6.221,0,9.027,2.928t2.806,8.3v4.636H334.222q-13.056,0-20.13,4.8t-7.075,14.653q0,8.515,5.246,13.621t15,5.107a22.034,22.034,0,0,0,12.077-3.111,14.946,14.946,0,0,0,6.466-9.333h0.732a13.734,13.734,0,0,0,3.721,7.991,10.956,10.956,0,0,0,8.113,2.989h8.661Zm-41.661-11.76a6.727,6.727,0,0,1-2.5-5.755V84.862q0-7.754,12.2-7.754h10v8.359a7.513,7.513,0,0,1-3.66,6.786,16.4,16.4,0,0,1-8.9,2.3Q327.876,94.553,325.377,92.676Z"/>
  </g>
</svg>
