<svg id="AI_rectangle_inverse" data-name="AI rectangle inverse" xmlns="http://www.w3.org/2000/svg" width="339" height="240" viewBox="0 0 339 240">
  <defs>
    <style>
      .cls-1 {
        fill: #ffb700;
      }

      .cls-1, .cls-2 {
        fill-rule: evenodd;
      }

      .cls-2 {
        fill: #372e2c;
      }
    </style>
  </defs>
  <g id="shapped_text" data-name="shapped text">
    <path id="akcja_Integra_·cja_" data-name="akcja Integra ·cja!" class="cls-1" d="M34.309,132.2V119.7h-9.3V72.565h9.3V60.059H-0.005V72.565H9.3V119.7h-9.3V132.2H34.309Zm24.588,0V97.06a7.044,7.044,0,0,1,.827-3.462,7.834,7.834,0,0,1,2.222-2.532,9.2,9.2,0,0,1,3.152-1.5,14.076,14.076,0,0,1,3.618-.465q4.237,0,5.891,2.532t1.654,7.8V132.2h15.3v-34q0-10.334-4.289-15.917T74.607,76.7q-6.41,0-10.026,3.1a16.633,16.633,0,0,0-5.064,7.338H58.9v-9.2H43.6V132.2H58.9Zm71.625,0V120.315H120.6V89.825h10.749V77.939H120.6V63.263H106.853v8.889a6.985,6.985,0,0,1-1.137,4.289q-1.139,1.5-4.238,1.5H97.654V89.825H105.3v26.563q0,7.751,4.082,11.782t12.041,4.031h9.1Zm44.587-1.143a24.14,24.14,0,0,0,9.457-6.633l-7.648-9.535a30.51,30.51,0,0,1-5.582,4.563,14.3,14.3,0,0,1-7.751,1.9q-6.2,0-9.1-3.127a11.954,11.954,0,0,1-2.894-8.456v-0.82h34.831V104.4a38.96,38.96,0,0,0-1.395-10.49,24.6,24.6,0,0,0-4.444-8.837,21.777,21.777,0,0,0-7.855-6.1A26.773,26.773,0,0,0,161.207,76.7a27.576,27.576,0,0,0-10.852,2.015,21.756,21.756,0,0,0-8.01,5.736,24.714,24.714,0,0,0-4.909,8.94,41.631,41.631,0,0,0,.051,23.41,23.933,23.933,0,0,0,5.065,8.94,22.8,22.8,0,0,0,8.217,5.685,28.644,28.644,0,0,0,11.059,2.015A34.9,34.9,0,0,0,175.109,131.058Zm-6.718-40.044a13.292,13.292,0,0,1,2.222,8.01v0.93H151.6V99.127a11.977,11.977,0,0,1,2.636-8.114,9.126,9.126,0,0,1,7.287-3.049Q166.168,87.965,168.391,91.014Zm72,33.435q-4.5-4.132-14.418-4.134H210.26q-3.514,0-5.013-1.085a3.544,3.544,0,0,1-1.5-3.049,4.9,4.9,0,0,1,2.378-4.341,37.872,37.872,0,0,0,9.612,1.137q11.782,0,17.519-4.91a16.343,16.343,0,0,0,5.736-13.074,18.329,18.329,0,0,0-2.274-9.25,15.5,15.5,0,0,0-7.028-6.253v-0.62H241.68V67.5H233.1a8.721,8.721,0,0,0-6.047,1.912q-2.12,1.914-2.119,6.253v2.067a35.684,35.684,0,0,0-9.2-1.034q-11.782,0-17.519,5.01a16.752,16.752,0,0,0-5.736,13.27,17.652,17.652,0,0,0,2.377,9.244,15.952,15.952,0,0,0,7.338,6.248v0.414a25.828,25.828,0,0,0-3.721,1.14,11.274,11.274,0,0,0-3.255,1.914,9.84,9.84,0,0,0-2.274,2.794,7.728,7.728,0,0,0-.879,3.777,10.027,10.027,0,0,0,1.964,6.158,9.025,9.025,0,0,0,5.891,3.364v1.136a12.789,12.789,0,0,0-7.441,3.2A9.421,9.421,0,0,0,189.8,141.5a10.136,10.136,0,0,0,1.4,5.323,10.909,10.909,0,0,0,4.444,3.927,27.835,27.835,0,0,0,7.958,2.481,81.773,81.773,0,0,0,25.839-.31,25.318,25.318,0,0,0,9.044-3.514,13.631,13.631,0,0,0,4.909-5.633,18.382,18.382,0,0,0,1.5-7.648Q244.884,128.586,240.388,124.449Zm-12.454,18.139q-2.584,1.4-8.786,1.4h-6.2q-6.2,0-8.785-1.4a4.652,4.652,0,0,1-2.584-4.392,7.451,7.451,0,0,1,.465-2.533,6.243,6.243,0,0,1,1.5-2.325h18.6q4.65,0,6.511,1.24a4.076,4.076,0,0,1,1.861,3.618A4.655,4.655,0,0,1,227.934,142.588Zm-18.966-41.639a6.824,6.824,0,0,1-2.222-5.494V94.221a6.822,6.822,0,0,1,2.222-5.492q2.222-1.9,6.77-1.9t6.769,1.9a6.829,6.829,0,0,1,2.223,5.492v1.234a6.831,6.831,0,0,1-2.223,5.494q-2.223,1.9-6.769,1.9T208.968,100.949Zm56.6,31.252v-31.73q0-4.753,3.256-6.512t9.974-1.757h3.824V77.939h-2.687a14.557,14.557,0,0,0-5.581.982,12.85,12.85,0,0,0-4.083,2.636,13.406,13.406,0,0,0-2.739,3.772,16.817,16.817,0,0,0-1.447,4.393h-0.517V77.939h-15.3V132.2h15.3Zm73.093,0V120.315h-5.065V96.543q0-9.714-5.788-14.78T310.441,76.7q-8.581,0-13.592,2.755a23.764,23.764,0,0,0-8.32,7.639l9.1,8.107a19.4,19.4,0,0,1,4.445-4.444,12.014,12.014,0,0,1,7.235-1.964q4.857,0,6.925,2.326A9.074,9.074,0,0,1,318.3,97.37v3.411h-8.579q-10.75,0-17,4.173t-6.253,12.724q0,7.11,4.341,11.437t12.506,4.326a18.851,18.851,0,0,0,10.439-2.739,12.544,12.544,0,0,0,5.478-8.01h0.62a11.869,11.869,0,0,0,3.462,6.925,9.62,9.62,0,0,0,6.874,2.584h8.475Zm-34.935-10.789a5.078,5.078,0,0,1-1.86-4.359v-1.539q0-6.051,8.992-6.051H318.3v6.358a5.74,5.74,0,0,1-2.739,5.334,12.535,12.535,0,0,1-6.563,1.641A8.7,8.7,0,0,1,303.722,121.412ZM100.589,193.991a8.254,8.254,0,0,0,2.222-5.943v-2.067a8.253,8.253,0,0,0-2.222-5.943q-2.224-2.327-6.873-2.326t-6.873,2.326a8.246,8.246,0,0,0-2.222,5.943v2.067a8.248,8.248,0,0,0,2.222,5.943q2.221,2.325,6.873,2.325T100.589,193.991Zm51.832,21.963q5.631-3.617,8.32-11.369l-11.886-5.168a13.007,13.007,0,0,1-3.566,5.839,9.345,9.345,0,0,1-6.563,2.223q-4.651,0-7.028-3t-2.378-8.165V186.187a13.016,13.016,0,0,1,2.378-8.217q2.376-3.047,7.028-3.049a8.762,8.762,0,0,1,6.305,2.171,10.415,10.415,0,0,1,3,5.271l12.4-5.374a20.381,20.381,0,0,0-7.907-10.439q-5.531-3.722-13.8-3.721a28.221,28.221,0,0,0-10.853,1.964,20.8,20.8,0,0,0-7.958,5.684,25.148,25.148,0,0,0-4.858,8.94,38.746,38.746,0,0,0-1.653,11.731,39.249,39.249,0,0,0,1.653,11.783,24.545,24.545,0,0,0,4.858,8.94,21.544,21.544,0,0,0,7.958,5.685,27.591,27.591,0,0,0,10.853,2.015A24.829,24.829,0,0,0,152.421,215.954Zm15,11.162h-8.061V239h8.061q8.063,0,11.68-3.824t3.617-11.059v-60.05h-15.3v63.047Zm14.419-70.954a7.348,7.348,0,0,0,2.118-5.426v-2.274a7.354,7.354,0,0,0-2.118-5.426q-2.121-2.117-6.77-2.119t-6.77,2.119a7.347,7.347,0,0,0-2.119,5.426v2.274a7.341,7.341,0,0,0,2.119,5.426q2.117,2.119,6.77,2.119T181.836,156.162Zm60.669,62.169V206.445h-5.064V182.673q0-9.714-5.788-14.78t-17.364-5.064q-8.58,0-13.592,2.755a23.769,23.769,0,0,0-8.32,7.639l9.1,8.107a19.376,19.376,0,0,1,4.444-4.445,12.015,12.015,0,0,1,7.235-1.964q4.857,0,6.925,2.326a9.073,9.073,0,0,1,2.067,6.253v3.411h-8.579q-10.75,0-17,4.173t-6.253,12.724q0,7.11,4.341,11.437t12.506,4.326a18.851,18.851,0,0,0,10.439-2.739,12.544,12.544,0,0,0,5.478-8.01h0.62a11.864,11.864,0,0,0,3.463,6.925,9.616,9.616,0,0,0,6.873,2.584h8.475Zm-34.934-10.789a5.076,5.076,0,0,1-1.861-4.359v-1.539q0-6.051,8.992-6.051h7.442v6.358a5.74,5.74,0,0,1-2.739,5.334,12.535,12.535,0,0,1-6.563,1.641A8.7,8.7,0,0,1,207.571,207.542Zm53.712-11.949,4.755-29.353V146.189H249.914V166.24l4.858,29.353h6.511Zm3.669,21.7a7.878,7.878,0,0,0,2.119-5.581v-2.48a7.888,7.888,0,0,0-2.119-5.582q-2.12-2.271-7.08-2.273t-7.079,2.273a7.883,7.883,0,0,0-2.119,5.582v2.48a7.874,7.874,0,0,0,2.119,5.581q2.117,2.273,7.079,2.274T264.952,217.3Z"/>
    <path id="akcja" class="cls-2" d="M82.955,56.407v-7.1H79.372V32.4q0-6.185-3.79-9.486t-11.094-3.3a17.452,17.452,0,0,0-8.751,1.907,15.211,15.211,0,0,0-5.306,5.025l5.237,4.713a13.242,13.242,0,0,1,3.2-3.2,8.459,8.459,0,0,1,5-1.344q3.514,0,5.1,1.654a6.5,6.5,0,0,1,1.585,4.685v2.618H64.42q-7.374,0-11.369,2.713t-4,8.276a10.245,10.245,0,0,0,2.963,7.694q2.962,2.884,8.475,2.884a12.447,12.447,0,0,0,6.821-1.757,8.44,8.44,0,0,0,3.652-5.271h0.413a7.757,7.757,0,0,0,2.1,4.513,6.188,6.188,0,0,0,4.582,1.688h4.892ZM59.425,49.765a3.8,3.8,0,0,1-1.413-3.25V45.352q0-4.38,6.89-4.38h5.65v4.721a4.244,4.244,0,0,1-2.067,3.833,9.264,9.264,0,0,1-5.03,1.3A6.609,6.609,0,0,1,59.425,49.765Zm29.332,6.642h8.82V45.451l4.754-5.168,9.234,16.124h10.473L108.325,34.357l12.4-13.919h-9.991l-8.062,9.233-4.754,6.477H97.576V5.418h-8.82V56.407Zm59.058-1.55a14.125,14.125,0,0,0,5.443-7.132L146.5,44.486a11.083,11.083,0,0,1-2.687,4.031,6.872,6.872,0,0,1-4.892,1.619,6.639,6.639,0,0,1-5.547-2.308,9.547,9.547,0,0,1-1.826-6.1V35.184a9.7,9.7,0,0,1,1.826-6.132,6.6,6.6,0,0,1,5.547-2.343,6.706,6.706,0,0,1,4.582,1.481,7.5,7.5,0,0,1,2.308,3.755l7.235-3.238a13.542,13.542,0,0,0-5.133-6.684,15.663,15.663,0,0,0-8.992-2.412,18.117,18.117,0,0,0-7.1,1.309,13.853,13.853,0,0,0-5.2,3.755,16.726,16.726,0,0,0-3.2,5.891,25.472,25.472,0,0,0-1.1,7.786,25.8,25.8,0,0,0,1.1,7.821,17.04,17.04,0,0,0,3.2,5.96,13.67,13.67,0,0,0,5.2,3.79,18.117,18.117,0,0,0,7.1,1.309A15.951,15.951,0,0,0,147.814,54.856ZM158.52,63.09h-5.512v7.1h4.823q4.962,0,7.235-2.446t2.274-6.994V20.439h-8.82V63.09Zm8.338-49.129a4.291,4.291,0,0,0,1.24-3.17V9.414a4.293,4.293,0,0,0-1.24-3.17,6.894,6.894,0,0,0-7.89,0,4.36,4.36,0,0,0-1.206,3.17v1.378a4.357,4.357,0,0,0,1.206,3.17A6.894,6.894,0,0,0,166.858,13.962Zm40.376,42.445v-7.1h-3.583V32.4q0-6.185-3.789-9.486t-11.094-3.3a17.454,17.454,0,0,0-8.751,1.907,15.21,15.21,0,0,0-5.305,5.025l5.236,4.713a13.262,13.262,0,0,1,3.2-3.2,8.456,8.456,0,0,1,5-1.344q3.515,0,5.1,1.654a6.5,6.5,0,0,1,1.585,4.685v2.618H188.7q-7.374,0-11.369,2.713t-4,8.276a10.243,10.243,0,0,0,2.963,7.694q2.961,2.884,8.475,2.884a12.446,12.446,0,0,0,6.821-1.757,8.438,8.438,0,0,0,3.652-5.271h0.414a7.754,7.754,0,0,0,2.1,4.513,6.188,6.188,0,0,0,4.582,1.688h4.892ZM183.7,49.765a3.8,3.8,0,0,1-1.413-3.25V45.352q0-4.38,6.891-4.38h5.65v4.721a4.244,4.244,0,0,1-2.067,3.833,9.265,9.265,0,0,1-5.03,1.3A6.608,6.608,0,0,1,183.7,49.765Z"/>
  </g>
</svg>
